# xmcd
#
# Track frame offsets: 
#        150
#        19110
#        33820
#        56400
#        71720
#        90390
#        102940
#        118367
#        137202
#        153742
#        172180
#        193962
#
# Disc length: 2711 seconds
#
# Revision: 3
# Processed by: cddbd v1.5.1PL2 Copyright (c) Steve Scherf et al.
# Submitted via: ExactAudioCopy v0.95b3
#
DISCID=ac0a950c
DTITLE=John Eddie - John Eddie
DYEAR=1986
DGENRE=Rock
TTITLE0=Dream House
TTITLE1=Pretty Little Rebel
TTITLE2=Hide Out
TTITLE3=Just Some Guy
TTITLE4=Please Jodi
TTITLE5=Cool Walk
TTITLE6=Jungle Boy 
TTITLE7=Stranded
TTITLE8=Waste Me
TTITLE9=Romance
TTITLE10=Buster
TTITLE11=Living Doll
EXTD=more info
EXTT0=
EXTT1=
EXTT2=
EXTT3=
EXTT4=
EXTT5=
EXTT6=
EXTT7=
EXTT8=
EXTT9=
EXTT10=
EXTT11=
PLAYORDER=
